<svg version="1.1" xmlns="http://www.w3.org/2000/svg" xmlns:xlink="http://www.w3.org/1999/xlink" width="700" height="601"><defs/><g><text fill="#eeeeee" stroke="none" font-family="Arial" font-size="24px" font-style="normal" font-weight="normal" text-decoration="none" x="0" y="0">UNREGISTERED</text><text fill="#eeeeee" stroke="none" font-family="Arial" font-size="24px" font-style="normal" font-weight="normal" text-decoration="none" x="0" y="30">UNREGISTERED</text><text fill="#eeeeee" stroke="none" font-family="Arial" font-size="24px" font-style="normal" font-weight="normal" text-decoration="none" x="0" y="60">UNREGISTERED</text><text fill="#eeeeee" stroke="none" font-family="Arial" font-size="24px" font-style="normal" font-weight="normal" text-decoration="none" x="0" y="90">UNREGISTERED</text><text fill="#eeeeee" stroke="none" font-family="Arial" font-size="24px" font-style="normal" font-weight="normal" text-decoration="none" x="0" y="120">UNREGISTERED</text><text fill="#eeeeee" stroke="none" font-family="Arial" font-size="24px" font-style="normal" font-weight="normal" text-decoration="none" x="0" y="150">UNREGISTERED</text><text fill="#eeeeee" stroke="none" font-family="Arial" font-size="24px" font-style="normal" font-weight="normal" text-decoration="none" x="0" y="180">UNREGISTERED</text><text fill="#eeeeee" stroke="none" font-family="Arial" font-size="24px" font-style="normal" font-weight="normal" text-decoration="none" x="0" y="210">UNREGISTERED</text><text fill="#eeeeee" stroke="none" font-family="Arial" font-size="24px" font-style="normal" font-weight="normal" text-decoration="none" x="0" y="240">UNREGISTERED</text><text fill="#eeeeee" stroke="none" font-family="Arial" font-size="24px" font-style="normal" font-weight="normal" text-decoration="none" x="0" y="270">UNREGISTERED</text><text fill="#eeeeee" stroke="none" font-family="Arial" font-size="24px" font-style="normal" font-weight="normal" text-decoration="none" x="0" y="300">UNREGISTERED</text><text fill="#eeeeee" stroke="none" font-family="Arial" font-size="24px" font-style="normal" font-weight="normal" text-decoration="none" x="0" y="330">UNREGISTERED</text><text fill="#eeeeee" stroke="none" font-family="Arial" font-size="24px" font-style="normal" font-weight="normal" text-decoration="none" x="0" y="360">UNREGISTERED</text><text fill="#eeeeee" stroke="none" font-family="Arial" font-size="24px" font-style="normal" font-weight="normal" text-decoration="none" x="0" y="390">UNREGISTERED</text><text fill="#eeeeee" stroke="none" font-family="Arial" font-size="24px" font-style="normal" font-weight="normal" text-decoration="none" x="0" y="420">UNREGISTERED</text><text fill="#eeeeee" stroke="none" font-family="Arial" font-size="24px" font-style="normal" font-weight="normal" text-decoration="none" x="0" y="450">UNREGISTERED</text><text fill="#eeeeee" stroke="none" font-family="Arial" font-size="24px" font-style="normal" font-weight="normal" text-decoration="none" x="0" y="480">UNREGISTERED</text><text fill="#eeeeee" stroke="none" font-family="Arial" font-size="24px" font-style="normal" font-weight="normal" text-decoration="none" x="0" y="510">UNREGISTERED</text><text fill="#eeeeee" stroke="none" font-family="Arial" font-size="24px" font-style="normal" font-weight="normal" text-decoration="none" x="0" y="540">UNREGISTERED</text><text fill="#eeeeee" stroke="none" font-family="Arial" font-size="24px" font-style="normal" font-weight="normal" text-decoration="none" x="0" y="570">UNREGISTERED</text><text fill="#eeeeee" stroke="none" font-family="Arial" font-size="24px" font-style="normal" font-weight="normal" text-decoration="none" x="0" y="600">UNREGISTERED</text><text fill="#eeeeee" stroke="none" font-family="Arial" font-size="24px" font-style="normal" font-weight="normal" text-decoration="none" x="200" y="0">UNREGISTERED</text><text fill="#eeeeee" stroke="none" font-family="Arial" font-size="24px" font-style="normal" font-weight="normal" text-decoration="none" x="200" y="30">UNREGISTERED</text><text fill="#eeeeee" stroke="none" font-family="Arial" font-size="24px" font-style="normal" font-weight="normal" text-decoration="none" x="200" y="60">UNREGISTERED</text><text fill="#eeeeee" stroke="none" font-family="Arial" font-size="24px" font-style="normal" font-weight="normal" text-decoration="none" x="200" y="90">UNREGISTERED</text><text fill="#eeeeee" stroke="none" font-family="Arial" font-size="24px" font-style="normal" font-weight="normal" text-decoration="none" x="200" y="120">UNREGISTERED</text><text fill="#eeeeee" stroke="none" font-family="Arial" font-size="24px" font-style="normal" font-weight="normal" text-decoration="none" x="200" y="150">UNREGISTERED</text><text fill="#eeeeee" stroke="none" font-family="Arial" font-size="24px" font-style="normal" font-weight="normal" text-decoration="none" x="200" y="180">UNREGISTERED</text><text fill="#eeeeee" stroke="none" font-family="Arial" font-size="24px" font-style="normal" font-weight="normal" text-decoration="none" x="200" y="210">UNREGISTERED</text><text fill="#eeeeee" stroke="none" font-family="Arial" font-size="24px" font-style="normal" font-weight="normal" text-decoration="none" x="200" y="240">UNREGISTERED</text><text fill="#eeeeee" stroke="none" font-family="Arial" font-size="24px" font-style="normal" font-weight="normal" text-decoration="none" x="200" y="270">UNREGISTERED</text><text fill="#eeeeee" stroke="none" font-family="Arial" font-size="24px" font-style="normal" font-weight="normal" text-decoration="none" x="200" y="300">UNREGISTERED</text><text fill="#eeeeee" stroke="none" font-family="Arial" font-size="24px" font-style="normal" font-weight="normal" text-decoration="none" x="200" y="330">UNREGISTERED</text><text fill="#eeeeee" stroke="none" font-family="Arial" font-size="24px" font-style="normal" font-weight="normal" text-decoration="none" x="200" y="360">UNREGISTERED</text><text fill="#eeeeee" stroke="none" font-family="Arial" font-size="24px" font-style="normal" font-weight="normal" text-decoration="none" x="200" y="390">UNREGISTERED</text><text fill="#eeeeee" stroke="none" font-family="Arial" font-size="24px" font-style="normal" font-weight="normal" text-decoration="none" x="200" y="420">UNREGISTERED</text><text fill="#eeeeee" stroke="none" font-family="Arial" font-size="24px" font-style="normal" font-weight="normal" text-decoration="none" x="200" y="450">UNREGISTERED</text><text fill="#eeeeee" stroke="none" font-family="Arial" font-size="24px" font-style="normal" font-weight="normal" text-decoration="none" x="200" y="480">UNREGISTERED</text><text fill="#eeeeee" stroke="none" font-family="Arial" font-size="24px" font-style="normal" font-weight="normal" text-decoration="none" x="200" y="510">UNREGISTERED</text><text fill="#eeeeee" stroke="none" font-family="Arial" font-size="24px" font-style="normal" font-weight="normal" text-decoration="none" x="200" y="540">UNREGISTERED</text><text fill="#eeeeee" stroke="none" font-family="Arial" font-size="24px" font-style="normal" font-weight="normal" text-decoration="none" x="200" y="570">UNREGISTERED</text><text fill="#eeeeee" stroke="none" font-family="Arial" font-size="24px" font-style="normal" font-weight="normal" text-decoration="none" x="200" y="600">UNREGISTERED</text><text fill="#eeeeee" stroke="none" font-family="Arial" font-size="24px" font-style="normal" font-weight="normal" text-decoration="none" x="400" y="0">UNREGISTERED</text><text fill="#eeeeee" stroke="none" font-family="Arial" font-size="24px" font-style="normal" font-weight="normal" text-decoration="none" x="400" y="30">UNREGISTERED</text><text fill="#eeeeee" stroke="none" font-family="Arial" font-size="24px" font-style="normal" font-weight="normal" text-decoration="none" x="400" y="60">UNREGISTERED</text><text fill="#eeeeee" stroke="none" font-family="Arial" font-size="24px" font-style="normal" font-weight="normal" text-decoration="none" x="400" y="90">UNREGISTERED</text><text fill="#eeeeee" stroke="none" font-family="Arial" font-size="24px" font-style="normal" font-weight="normal" text-decoration="none" x="400" y="120">UNREGISTERED</text><text fill="#eeeeee" stroke="none" font-family="Arial" font-size="24px" font-style="normal" font-weight="normal" text-decoration="none" x="400" y="150">UNREGISTERED</text><text fill="#eeeeee" stroke="none" font-family="Arial" font-size="24px" font-style="normal" font-weight="normal" text-decoration="none" x="400" y="180">UNREGISTERED</text><text fill="#eeeeee" stroke="none" font-family="Arial" font-size="24px" font-style="normal" font-weight="normal" text-decoration="none" x="400" y="210">UNREGISTERED</text><text fill="#eeeeee" stroke="none" font-family="Arial" font-size="24px" font-style="normal" font-weight="normal" text-decoration="none" x="400" y="240">UNREGISTERED</text><text fill="#eeeeee" stroke="none" font-family="Arial" font-size="24px" font-style="normal" font-weight="normal" text-decoration="none" x="400" y="270">UNREGISTERED</text><text fill="#eeeeee" stroke="none" font-family="Arial" font-size="24px" font-style="normal" font-weight="normal" text-decoration="none" x="400" y="300">UNREGISTERED</text><text fill="#eeeeee" stroke="none" font-family="Arial" font-size="24px" font-style="normal" font-weight="normal" text-decoration="none" x="400" y="330">UNREGISTERED</text><text fill="#eeeeee" stroke="none" font-family="Arial" font-size="24px" font-style="normal" font-weight="normal" text-decoration="none" x="400" y="360">UNREGISTERED</text><text fill="#eeeeee" stroke="none" font-family="Arial" font-size="24px" font-style="normal" font-weight="normal" text-decoration="none" x="400" y="390">UNREGISTERED</text><text fill="#eeeeee" stroke="none" font-family="Arial" font-size="24px" font-style="normal" font-weight="normal" text-decoration="none" x="400" y="420">UNREGISTERED</text><text fill="#eeeeee" stroke="none" font-family="Arial" font-size="24px" font-style="normal" font-weight="normal" text-decoration="none" x="400" y="450">UNREGISTERED</text><text fill="#eeeeee" stroke="none" font-family="Arial" font-size="24px" font-style="normal" font-weight="normal" text-decoration="none" x="400" y="480">UNREGISTERED</text><text fill="#eeeeee" stroke="none" font-family="Arial" font-size="24px" font-style="normal" font-weight="normal" text-decoration="none" x="400" y="510">UNREGISTERED</text><text fill="#eeeeee" stroke="none" font-family="Arial" font-size="24px" font-style="normal" font-weight="normal" text-decoration="none" x="400" y="540">UNREGISTERED</text><text fill="#eeeeee" stroke="none" font-family="Arial" font-size="24px" font-style="normal" font-weight="normal" text-decoration="none" x="400" y="570">UNREGISTERED</text><text fill="#eeeeee" stroke="none" font-family="Arial" font-size="24px" font-style="normal" font-weight="normal" text-decoration="none" x="400" y="600">UNREGISTERED</text><text fill="#eeeeee" stroke="none" font-family="Arial" font-size="24px" font-style="normal" font-weight="normal" text-decoration="none" x="600" y="0">UNREGISTERED</text><text fill="#eeeeee" stroke="none" font-family="Arial" font-size="24px" font-style="normal" font-weight="normal" text-decoration="none" x="600" y="30">UNREGISTERED</text><text fill="#eeeeee" stroke="none" font-family="Arial" font-size="24px" font-style="normal" font-weight="normal" text-decoration="none" x="600" y="60">UNREGISTERED</text><text fill="#eeeeee" stroke="none" font-family="Arial" font-size="24px" font-style="normal" font-weight="normal" text-decoration="none" x="600" y="90">UNREGISTERED</text><text fill="#eeeeee" stroke="none" font-family="Arial" font-size="24px" font-style="normal" font-weight="normal" text-decoration="none" x="600" y="120">UNREGISTERED</text><text fill="#eeeeee" stroke="none" font-family="Arial" font-size="24px" font-style="normal" font-weight="normal" text-decoration="none" x="600" y="150">UNREGISTERED</text><text fill="#eeeeee" stroke="none" font-family="Arial" font-size="24px" font-style="normal" font-weight="normal" text-decoration="none" x="600" y="180">UNREGISTERED</text><text fill="#eeeeee" stroke="none" font-family="Arial" font-size="24px" font-style="normal" font-weight="normal" text-decoration="none" x="600" y="210">UNREGISTERED</text><text fill="#eeeeee" stroke="none" font-family="Arial" font-size="24px" font-style="normal" font-weight="normal" text-decoration="none" x="600" y="240">UNREGISTERED</text><text fill="#eeeeee" stroke="none" font-family="Arial" font-size="24px" font-style="normal" font-weight="normal" text-decoration="none" x="600" y="270">UNREGISTERED</text><text fill="#eeeeee" stroke="none" font-family="Arial" font-size="24px" font-style="normal" font-weight="normal" text-decoration="none" x="600" y="300">UNREGISTERED</text><text fill="#eeeeee" stroke="none" font-family="Arial" font-size="24px" font-style="normal" font-weight="normal" text-decoration="none" x="600" y="330">UNREGISTERED</text><text fill="#eeeeee" stroke="none" font-family="Arial" font-size="24px" font-style="normal" font-weight="normal" text-decoration="none" x="600" y="360">UNREGISTERED</text><text fill="#eeeeee" stroke="none" font-family="Arial" font-size="24px" font-style="normal" font-weight="normal" text-decoration="none" x="600" y="390">UNREGISTERED</text><text fill="#eeeeee" stroke="none" font-family="Arial" font-size="24px" font-style="normal" font-weight="normal" text-decoration="none" x="600" y="420">UNREGISTERED</text><text fill="#eeeeee" stroke="none" font-family="Arial" font-size="24px" font-style="normal" font-weight="normal" text-decoration="none" x="600" y="450">UNREGISTERED</text><text fill="#eeeeee" stroke="none" font-family="Arial" font-size="24px" font-style="normal" font-weight="normal" text-decoration="none" x="600" y="480">UNREGISTERED</text><text fill="#eeeeee" stroke="none" font-family="Arial" font-size="24px" font-style="normal" font-weight="normal" text-decoration="none" x="600" y="510">UNREGISTERED</text><text fill="#eeeeee" stroke="none" font-family="Arial" font-size="24px" font-style="normal" font-weight="normal" text-decoration="none" x="600" y="540">UNREGISTERED</text><text fill="#eeeeee" stroke="none" font-family="Arial" font-size="24px" font-style="normal" font-weight="normal" text-decoration="none" x="600" y="570">UNREGISTERED</text><text fill="#eeeeee" stroke="none" font-family="Arial" font-size="24px" font-style="normal" font-weight="normal" text-decoration="none" x="600" y="600">UNREGISTERED</text><g transform="translate(-30,-6) scale(1,1)"><rect fill="#C0C0C0" stroke="none" x="47" y="279" width="224" height="152" opacity="0.2"/></g><g transform="translate(-30,-6) scale(1,1)"><rect fill="#ffffff" stroke="none" x="40" y="272" width="224" height="152"/></g><g transform="translate(-30,-6) scale(1,1)"><path fill="none" stroke="#000000" d="M 40 272 L 264 272 L 264 424 L 40 424 L 40 272 Z Z" stroke-miterlimit="10"/></g><g transform="translate(-30,-6) scale(1,1)"><path fill="none" stroke="#000000" d="M 40 297 L 264 297" stroke-miterlimit="10"/></g><g transform="translate(-30,-6) scale(1,1)"><path fill="none" stroke="#000000" d="M 40 380 L 264 380" stroke-miterlimit="10"/></g><g transform="translate(-30,-6) scale(1,1)"><g><path fill="none" stroke="none"/><text fill="#000000" stroke="none" font-family="Arial" font-size="13px" font-style="italic" font-weight="bold" text-decoration="none" x="125.152587890625" y="289.5">Vehículo</text></g></g><g transform="translate(-30,-6) scale(1,1)"><g><path fill="none" stroke="none"/><text fill="#000000" stroke="none" font-family="Arial" font-size="13px" font-style="normal" font-weight="normal" text-decoration="none" x="45" y="311.5">-marca</text></g></g><g transform="translate(-30,-6) scale(1,1)"><g><path fill="none" stroke="none"/><text fill="#000000" stroke="none" font-family="Arial" font-size="13px" font-style="normal" font-weight="normal" text-decoration="none" x="45" y="328">-modelo</text></g></g><g transform="translate(-30,-6) scale(1,1)"><g><path fill="none" stroke="none"/><text fill="#000000" stroke="none" font-family="Arial" font-size="13px" font-style="normal" font-weight="normal" text-decoration="none" x="45" y="343">-anioFabricacion</text></g></g><g transform="translate(-30,-6) scale(1,1)"><g><path fill="none" stroke="none"/><text fill="#000000" stroke="none" font-family="Arial" font-size="13px" font-style="normal" font-weight="normal" text-decoration="none" x="45" y="358">-matricula</text></g></g><g transform="translate(-30,-6) scale(1,1)"><g><path fill="none" stroke="none"/><text fill="#000000" stroke="none" font-family="Arial" font-size="13px" font-style="normal" font-weight="normal" text-decoration="none" x="45" y="373">-tipo: TipoVehiculo</text></g></g><g transform="translate(-30,-6) scale(1,1)"><g><path fill="none" stroke="none"/><text fill="#000000" stroke="none" font-family="Arial" font-size="13px" font-style="normal" font-weight="normal" text-decoration="none" x="45" y="396">+Vehiculo(...)</text></g></g><g transform="translate(-30,-6) scale(1,1)"><g><path fill="none" stroke="none"/><text fill="#000000" stroke="none" font-family="Arial" font-size="13px" font-style="normal" font-weight="normal" text-decoration="none" x="45" y="411">+toString(): String</text></g></g><g transform="translate(-30,-6) scale(1,1)"><rect fill="#C0C0C0" stroke="none" x="47" y="519" width="171.5830078125" height="85" opacity="0.2"/></g><g transform="translate(-30,-6) scale(1,1)"><rect fill="#ffffff" stroke="none" x="40" y="512" width="171.5830078125" height="85"/></g><g transform="translate(-30,-6) scale(1,1)"><path fill="none" stroke="#000000" d="M 40 512 L 211.5830078125 512 L 211.5830078125 597 L 40 597 L 40 512 Z Z" stroke-miterlimit="10"/></g><g transform="translate(-30,-6) scale(1,1)"><path fill="none" stroke="#000000" d="M 40 537 L 211.5830078125 537" stroke-miterlimit="10"/></g><g transform="translate(-30,-6) scale(1,1)"><path fill="none" stroke="#000000" d="M 40 560 L 211.5830078125 560" stroke-miterlimit="10"/></g><g transform="translate(-30,-6) scale(1,1)"><g><path fill="none" stroke="none"/><text fill="#000000" stroke="none" font-family="Arial" font-size="13px" font-style="normal" font-weight="bold" text-decoration="none" x="100.632568359375" y="530">Turismo</text></g></g><g transform="translate(-30,-6) scale(1,1)"><g><path fill="none" stroke="none"/><text fill="#000000" stroke="none" font-family="Arial" font-size="13px" font-style="normal" font-weight="normal" text-decoration="none" x="45" y="553">-numeroPuertas</text></g></g><g transform="translate(-30,-6) scale(1,1)"><g><path fill="none" stroke="none"/><text fill="#000000" stroke="none" font-family="Arial" font-size="13px" font-style="normal" font-weight="normal" text-decoration="none" x="45" y="576">+Turismo(...)</text></g></g><g transform="translate(-30,-6) scale(1,1)"><g><path fill="none" stroke="none"/><text fill="#000000" stroke="none" font-family="Arial" font-size="13px" font-style="normal" font-weight="normal" text-decoration="none" x="45" y="591">+toString(): String</text></g></g><g transform="translate(-30,-6) scale(1,1)"><path fill="none" stroke="#000000" d="M 131 511 L 142 425" stroke-miterlimit="10"/></g><g transform="translate(-30,-6) scale(1,1)"><path fill="#FFFFFF" stroke="none" d="M 147.77225542591333 446.2292502763996 L 142 425 L 131.07025412445557 444.0929477843527"/></g><g transform="translate(-30,-6) scale(1,1)"><path fill="none" stroke="#000000" d="M 147.77225542591333 446.2292502763996 L 142 425 L 131.07025412445557 444.0929477843527 L 147.77225542591333 446.2292502763996" stroke-miterlimit="10"/></g><g transform="translate(-30,-6) scale(1,1)"><rect fill="#C0C0C0" stroke="none" x="302" y="23" width="375.9326171875" height="205" opacity="0.2"/></g><g transform="translate(-30,-6) scale(1,1)"><rect fill="#ffffff" stroke="none" x="295" y="16" width="375.9326171875" height="205"/></g><g transform="translate(-30,-6) scale(1,1)"><path fill="none" stroke="#000000" d="M 295 16 L 670.9326171875 16 L 670.9326171875 221 L 295 221 L 295 16 Z Z" stroke-miterlimit="10"/></g><g transform="translate(-30,-6) scale(1,1)"><path fill="none" stroke="#000000" d="M 295 41 L 670.9326171875 41" stroke-miterlimit="10"/></g><g transform="translate(-30,-6) scale(1,1)"><path fill="none" stroke="#000000" d="M 295 124 L 670.9326171875 124" stroke-miterlimit="10"/></g><g transform="translate(-30,-6) scale(1,1)"><g><path fill="none" stroke="none"/><text fill="#000000" stroke="none" font-family="Arial" font-size="13px" font-style="normal" font-weight="bold" text-decoration="none" x="400.964111328125" y="34">EmpresaAlquilerVehiculos</text></g></g><g transform="translate(-30,-6) scale(1,1)"><g><path fill="none" stroke="none"/><text fill="#000000" stroke="none" font-family="Arial" font-size="13px" font-style="normal" font-weight="normal" text-decoration="none" x="300" y="57">-nombre: String</text></g></g><g transform="translate(-30,-6) scale(1,1)"><g><path fill="none" stroke="none"/><text fill="#000000" stroke="none" font-family="Arial" font-size="13px" font-style="normal" font-weight="normal" text-decoration="none" x="300" y="72">-nif: String</text></g></g><g transform="translate(-30,-6) scale(1,1)"><g><path fill="none" stroke="none"/><text fill="#000000" stroke="none" font-family="Arial" font-size="13px" font-style="normal" font-weight="normal" text-decoration="none" x="300" y="87">-clientes: Map</text></g></g><g transform="translate(-30,-6) scale(1,1)"><g><path fill="none" stroke="none"/><text fill="#000000" stroke="none" font-family="Arial" font-size="13px" font-style="normal" font-weight="normal" text-decoration="none" x="300" y="102">-vehiculos: Map</text></g></g><g transform="translate(-30,-6) scale(1,1)"><g><path fill="none" stroke="none"/><text fill="#000000" stroke="none" font-family="Arial" font-size="13px" font-style="normal" font-weight="normal" text-decoration="none" x="300" y="117">-alquileres: List</text></g></g><g transform="translate(-30,-6) scale(1,1)"><g><path fill="none" stroke="none"/><text fill="#000000" stroke="none" font-family="Arial" font-size="13px" font-style="normal" font-weight="normal" text-decoration="none" x="300" y="140">+EmpresaAlquilerVehiculos(nombre: String, nif: String)</text></g></g><g transform="translate(-30,-6) scale(1,1)"><g><path fill="none" stroke="none"/><text fill="#000000" stroke="none" font-family="Arial" font-size="13px" font-style="normal" font-weight="normal" text-decoration="none" x="300" y="155">+addCliente(cliente: Cliente): boolean</text></g></g><g transform="translate(-30,-6) scale(1,1)"><g><path fill="none" stroke="none"/><text fill="#000000" stroke="none" font-family="Arial" font-size="13px" font-style="normal" font-weight="normal" text-decoration="none" x="300" y="170">+addVehiculo(vehiculo: Vehiculo): boolean</text></g></g><g transform="translate(-30,-6) scale(1,1)"><g><path fill="none" stroke="none"/><text fill="#000000" stroke="none" font-family="Arial" font-size="13px" font-style="normal" font-weight="normal" text-decoration="none" x="300" y="185">+addAlquiler(alquiler: Alquiler): boolean</text></g></g><g transform="translate(-30,-6) scale(1,1)"><g><path fill="none" stroke="none"/><text fill="#000000" stroke="none" font-family="Arial" font-size="13px" font-style="normal" font-weight="normal" text-decoration="none" x="300" y="200">+finalizarAlquiler(matricula: String, fin: LocalDateTime): boolean</text></g></g><g transform="translate(-30,-6) scale(1,1)"><g><path fill="none" stroke="none"/><text fill="#000000" stroke="none" font-family="Arial" font-size="13px" font-style="normal" font-weight="normal" text-decoration="none" x="300" y="215">+toString(): String</text></g></g><g transform="translate(-30,-6) scale(1,1)"><rect fill="#C0C0C0" stroke="none" x="615" y="279" width="112" height="115" opacity="0.2"/></g><g transform="translate(-30,-6) scale(1,1)"><rect fill="#ffffff" stroke="none" x="608" y="272" width="112" height="115"/></g><g transform="translate(-30,-6) scale(1,1)"><path fill="none" stroke="#000000" d="M 608 272 L 720 272 L 720 387 L 608 387 L 608 272 Z Z" stroke-miterlimit="10"/></g><g transform="translate(-30,-6) scale(1,1)"><path fill="none" stroke="#000000" d="M 608 297 L 720 297" stroke-miterlimit="10"/></g><g transform="translate(-30,-6) scale(1,1)"><path fill="none" stroke="#000000" d="M 608 350 L 720 350" stroke-miterlimit="10"/></g><g transform="translate(-30,-6) scale(1,1)"><g><path fill="none" stroke="none"/><text fill="#000000" stroke="none" font-family="Arial" font-size="13px" font-style="normal" font-weight="bold" text-decoration="none" x="642.3291015625" y="290">Cliente</text></g></g><g transform="translate(-30,-6) scale(1,1)"><g><path fill="none" stroke="none"/><text fill="#000000" stroke="none" font-family="Arial" font-size="13px" font-style="normal" font-weight="normal" text-decoration="none" x="613" y="313">-dni</text></g></g><g transform="translate(-30,-6) scale(1,1)"><g><path fill="none" stroke="none"/><text fill="#000000" stroke="none" font-family="Arial" font-size="13px" font-style="normal" font-weight="normal" text-decoration="none" x="613" y="328">-nombre</text></g></g><g transform="translate(-30,-6) scale(1,1)"><g><path fill="none" stroke="none"/><text fill="#000000" stroke="none" font-family="Arial" font-size="13px" font-style="normal" font-weight="normal" text-decoration="none" x="613" y="343">-apellidos</text></g></g><g transform="translate(-30,-6) scale(1,1)"><g><path fill="none" stroke="none"/><text fill="#000000" stroke="none" font-family="Arial" font-size="13px" font-style="normal" font-weight="normal" text-decoration="none" x="613" y="366">+Cliente(...)</text></g></g><g transform="translate(-30,-6) scale(1,1)"><g><path fill="none" stroke="none"/><text fill="#000000" stroke="none" font-family="Arial" font-size="13px" font-style="normal" font-weight="normal" text-decoration="none" x="613" y="381">+toString(): String</text></g></g><g transform="translate(-30,-6) scale(1,1)"><rect fill="#C0C0C0" stroke="none" x="335" y="279" width="228.27978515625" height="130" opacity="0.2"/></g><g transform="translate(-30,-6) scale(1,1)"><rect fill="#ffffff" stroke="none" x="328" y="272" width="228.27978515625" height="130"/></g><g transform="translate(-30,-6) scale(1,1)"><path fill="none" stroke="#000000" d="M 328 272 L 556.27978515625 272 L 556.27978515625 402 L 328 402 L 328 272 Z Z" stroke-miterlimit="10"/></g><g transform="translate(-30,-6) scale(1,1)"><path fill="none" stroke="#000000" d="M 328 297 L 556.27978515625 297" stroke-miterlimit="10"/></g><g transform="translate(-30,-6) scale(1,1)"><path fill="none" stroke="#000000" d="M 328 365 L 556.27978515625 365" stroke-miterlimit="10"/></g><g transform="translate(-30,-6) scale(1,1)"><g><path fill="none" stroke="none"/><text fill="#000000" stroke="none" font-family="Arial" font-size="13px" font-style="normal" font-weight="bold" text-decoration="none" x="417.942626953125" y="290">Alquiler</text></g></g><g transform="translate(-30,-6) scale(1,1)"><g><path fill="none" stroke="none"/><text fill="#000000" stroke="none" font-family="Arial" font-size="13px" font-style="normal" font-weight="normal" text-decoration="none" x="333" y="313">-cliente: Cliente</text></g></g><g transform="translate(-30,-6) scale(1,1)"><g><path fill="none" stroke="none"/><text fill="#000000" stroke="none" font-family="Arial" font-size="13px" font-style="normal" font-weight="normal" text-decoration="none" x="333" y="328">-vehiculo: Vehículo</text></g></g><g transform="translate(-30,-6) scale(1,1)"><g><path fill="none" stroke="none"/><text fill="#000000" stroke="none" font-family="Arial" font-size="13px" font-style="normal" font-weight="normal" text-decoration="none" x="333" y="343">-inicioAlquiler: LocalDateTime</text></g></g><g transform="translate(-30,-6) scale(1,1)"><g><path fill="none" stroke="none"/><text fill="#000000" stroke="none" font-family="Arial" font-size="13px" font-style="normal" font-weight="normal" text-decoration="none" x="333" y="358">-finAlquiler: LocalDateTime</text></g></g><g transform="translate(-30,-6) scale(1,1)"><g><path fill="none" stroke="none"/><text fill="#000000" stroke="none" font-family="Arial" font-size="13px" font-style="normal" font-weight="normal" text-decoration="none" x="333" y="381">+Alquiler(...)</text></g></g><g transform="translate(-30,-6) scale(1,1)"><g><path fill="none" stroke="none"/><text fill="#000000" stroke="none" font-family="Arial" font-size="13px" font-style="normal" font-weight="normal" text-decoration="none" x="333" y="396">+toString(): String</text></g></g><g transform="translate(-30,-6) scale(1,1)"><path fill="none" stroke="#000000" d="M 265 344 L 327 341" stroke-miterlimit="10"/></g><g transform="translate(-30,-6) scale(1,1)"><path fill="#FFFFFF" stroke="none" d="M 317.05264959840633 345.69576617687835 L 327 341 L 316.6457529696573 337.2865691827315 L 305.025709286196 342.0632721313131"/></g><g transform="translate(-30,-6) scale(1,1)"><path fill="none" stroke="#000000" d="M 317.05264959840633 345.69576617687835 L 327 341 L 316.6457529696573 337.2865691827315 L 305.025709286196 342.0632721313131 L 317.05264959840633 345.69576617687835" stroke-miterlimit="10"/></g><g transform="translate(-30,-6) scale(1,1)"><path fill="none" stroke="#000000" d="M 607 331 L 557 333" stroke-miterlimit="10"/></g><g transform="translate(-30,-6) scale(1,1)"><path fill="#FFFFFF" stroke="none" d="M 566.9863082938132 328.3876636439958 L 557 333 L 567.3228006280186 336.79997199913095 L 578.9824210918794 332.12070315632485"/></g><g transform="translate(-30,-6) scale(1,1)"><path fill="none" stroke="#000000" d="M 566.9863082938132 328.3876636439958 L 557 333 L 567.3228006280186 336.79997199913095 L 578.9824210918794 332.12070315632485 L 566.9863082938132 328.3876636439958" stroke-miterlimit="10"/></g><g transform="translate(-30,-6) scale(1,1)"><path fill="none" stroke="#000000" d="M 454 271 L 463 222" stroke-miterlimit="10"/></g><g transform="translate(-30,-6) scale(1,1)"><path fill="#FFFFFF" stroke="none" d="M 465.3043565965006 232.75592584002717 L 463 222 L 457.0238380762347 231.23501427508037 L 459.02566655277667 243.63803765710472"/></g><g transform="translate(-30,-6) scale(1,1)"><path fill="none" stroke="#000000" d="M 465.3043565965006 232.75592584002717 L 463 222 L 457.0238380762347 231.23501427508037 L 459.02566655277667 243.63803765710472 L 465.3043565965006 232.75592584002717" stroke-miterlimit="10"/></g><g transform="translate(-30,-6) scale(1,1)"><path fill="none" stroke="#000000" d="M 262 271 L 333 222" stroke-miterlimit="10"/></g><g transform="translate(-30,-6) scale(1,1)"><path fill="#FFFFFF" stroke="none" d="M 327.0268772328717 231.23698026461105 L 333 222 L 322.24483300371105 224.3078957692966 L 314.89342963584613 234.49608377244422"/></g><g transform="translate(-30,-6) scale(1,1)"><path fill="none" stroke="#000000" d="M 327.0268772328717 231.23698026461105 L 333 222 L 322.24483300371105 224.3078957692966 L 314.89342963584613 234.49608377244422 L 327.0268772328717 231.23698026461105" stroke-miterlimit="10"/></g><g transform="translate(-30,-6) scale(1,1)"><path fill="none" stroke="#000000" d="M 614 271 L 572 222" stroke-miterlimit="10"/></g><g transform="translate(-30,-6) scale(1,1)"><path fill="#FFFFFF" stroke="none" d="M 581.8098852776087 226.976560141318 L 572 222 L 575.4176769795506 232.45559582536788 L 586.3174102160314 238.70364525203652"/></g><g transform="translate(-30,-6) scale(1,1)"><path fill="none" stroke="#000000" d="M 581.8098852776087 226.976560141318 L 572 222 L 575.4176769795506 232.45559582536788 L 586.3174102160314 238.70364525203652 L 581.8098852776087 226.976560141318" stroke-miterlimit="10"/></g><g transform="translate(-30,-6) scale(1,1)"><rect fill="#C0C0C0" stroke="none" x="287" y="519" width="116.6689453125" height="85" opacity="0.2"/></g><g transform="translate(-30,-6) scale(1,1)"><rect fill="#ffffff" stroke="none" x="280" y="512" width="116.6689453125" height="85"/></g><g transform="translate(-30,-6) scale(1,1)"><path fill="none" stroke="#000000" d="M 280 512 L 396.6689453125 512 L 396.6689453125 597 L 280 597 L 280 512 Z Z" stroke-miterlimit="10"/></g><g transform="translate(-30,-6) scale(1,1)"><path fill="none" stroke="#000000" d="M 280 537 L 396.6689453125 537" stroke-miterlimit="10"/></g><g transform="translate(-30,-6) scale(1,1)"><path fill="none" stroke="#000000" d="M 280 560 L 396.6689453125 560" stroke-miterlimit="10"/></g><g transform="translate(-30,-6) scale(1,1)"><g><path fill="none" stroke="none"/><text fill="#000000" stroke="none" font-family="Arial" font-size="13px" font-style="normal" font-weight="bold" text-decoration="none" x="302.578125" y="530">Motocicleta</text></g></g><g transform="translate(-30,-6) scale(1,1)"><g><path fill="none" stroke="none"/><text fill="#000000" stroke="none" font-family="Arial" font-size="13px" font-style="normal" font-weight="normal" text-decoration="none" x="285" y="553">-cilindrada</text></g></g><g transform="translate(-30,-6) scale(1,1)"><g><path fill="none" stroke="none"/><text fill="#000000" stroke="none" font-family="Arial" font-size="13px" font-style="normal" font-weight="normal" text-decoration="none" x="285" y="576">+Motocicleta(...)</text></g></g><g transform="translate(-30,-6) scale(1,1)"><g><path fill="none" stroke="none"/><text fill="#000000" stroke="none" font-family="Arial" font-size="13px" font-style="normal" font-weight="normal" text-decoration="none" x="285" y="591">+toString(): String</text></g></g><g transform="translate(-30,-6) scale(1,1)"><path fill="none" stroke="#000000" d="M 299 511 L 222 425" stroke-miterlimit="10"/></g><g transform="translate(-30,-6) scale(1,1)"><path fill="#FFFFFF" stroke="none" d="M 241.8302900345078 434.5267831479099 L 222 425 L 229.28567958951567 445.75858552307733"/></g><g transform="translate(-30,-6) scale(1,1)"><path fill="none" stroke="#000000" d="M 241.8302900345078 434.5267831479099 L 222 425 L 229.28567958951567 445.75858552307733 L 241.8302900345078 434.5267831479099" stroke-miterlimit="10"/></g><g transform="translate(-30,-6) scale(1,1)"><rect fill="#C0C0C0" stroke="none" x="111" y="119" width="101.69482421875" height="75" opacity="0.2"/></g><g transform="translate(-30,-6) scale(1,1)"><rect fill="#ffffff" stroke="none" x="104" y="112" width="101.69482421875" height="75"/></g><g transform="translate(-30,-6) scale(1,1)"><path fill="none" stroke="#000000" d="M 104 112 L 205.69482421875 112 L 205.69482421875 187 L 104 187 L 104 112 Z Z" stroke-miterlimit="10"/></g><g transform="translate(-30,-6) scale(1,1)"><path fill="none" stroke="#000000" d="M 104 150 L 205.69482421875 150" stroke-miterlimit="10"/></g><g transform="translate(-30,-6) scale(1,1)"><g><path fill="none" stroke="none"/><text fill="#000000" stroke="none" font-family="Arial" font-size="13px" font-style="normal" font-weight="normal" text-decoration="none" x="111.4833984375" y="128">«enumeration»</text></g></g><g transform="translate(-30,-6) scale(1,1)"><g><path fill="none" stroke="none"/><text fill="#000000" stroke="none" font-family="Arial" font-size="13px" font-style="normal" font-weight="bold" text-decoration="none" x="114.517578125" y="143">TipoVehiculo</text></g></g><g transform="translate(-30,-6) scale(1,1)"><g><path fill="none" stroke="none"/><text fill="#000000" stroke="none" font-family="Arial" font-size="13px" font-style="normal" font-weight="normal" text-decoration="none" x="109" y="166">TURISMO</text></g></g><g transform="translate(-30,-6) scale(1,1)"><g><path fill="none" stroke="none"/><text fill="#000000" stroke="none" font-family="Arial" font-size="13px" font-style="normal" font-weight="normal" text-decoration="none" x="109" y="181">MOTOCICLETA</text></g></g><g transform="translate(-30,-6) scale(1,1)"><path fill="none" stroke="#000000" d="M 154 188 L 153 271" stroke-miterlimit="10"/></g></g></svg>